<?xml version="1.0" encoding="UTF-8" standalone="no"?>
<!-- Created with Inkscape (http://www.inkscape.org/) -->

<svg
   xmlns:dc="http://purl.org/dc/elements/1.1/"
   xmlns:cc="http://creativecommons.org/ns#"
   xmlns:rdf="http://www.w3.org/1999/02/22-rdf-syntax-ns#"
   xmlns:svg="http://www.w3.org/2000/svg"
   xmlns="http://www.w3.org/2000/svg"
   xmlns:sodipodi="http://sodipodi.sourceforge.net/DTD/sodipodi-0.dtd"
   xmlns:inkscape="http://www.inkscape.org/namespaces/inkscape"
   width="744.09448819"
   height="1052.3622047"
   id="svg2"
   version="1.1"
   inkscape:version="0.48.4 r9939"
   sodipodi:docname="drophere.svg">
  <defs
     id="defs4" />
  <sodipodi:namedview
     id="base"
     pagecolor="#ffffff"
     bordercolor="#666666"
     borderopacity="1.0"
     inkscape:pageopacity="0.0"
     inkscape:pageshadow="2"
     inkscape:zoom="0.35"
     inkscape:cx="-113.57143"
     inkscape:cy="520"
     inkscape:document-units="px"
     inkscape:current-layer="layer1"
     showgrid="false"
     inkscape:window-width="1477"
     inkscape:window-height="956"
     inkscape:window-x="237"
     inkscape:window-y="133"
     inkscape:window-maximized="0" />
  <metadata
     id="metadata7">
    <rdf:RDF>
      <cc:Work
         rdf:about="">
        <dc:format>image/svg+xml</dc:format>
        <dc:type
           rdf:resource="http://purl.org/dc/dcmitype/StillImage" />
        <dc:title></dc:title>
      </cc:Work>
    </rdf:RDF>
  </metadata>
  <g
     inkscape:label="Layer 1"
     inkscape:groupmode="layer"
     id="layer1">
    <g
       id="g3058"
       style="stroke:none"
       transform="matrix(1.2974052,0,0,1.2974052,-101.54567,245.11346)"
       inkscape:export-filename="/home/phil/PROJECTS/PopArt/img/drop-outline.png"
       inkscape:export-xdpi="90"
       inkscape:export-ydpi="90">
      <g
         transform="matrix(4.8995215,0,0,4.3700222,-382.25371,-681.5538)"
         style="font-size:40px;font-style:normal;font-variant:normal;font-weight:bold;font-stretch:normal;line-height:125%;letter-spacing:0px;word-spacing:0px;fill:none;stroke:#000000;stroke-width:0.21611322;stroke-miterlimit:4;stroke-opacity:1;stroke-dasharray:none;font-family:Droid Sans;-inkscape-font-specification:Droid Sans Bold"
         id="flowRoot2985">
        <path
           d="m 122.83984,223.38169 c -2e-5,2.40886 -0.33205,4.52474 -0.99609,6.34765 -0.65107,1.8099 -1.60159,3.32683 -2.85156,4.55078 -1.237,1.21094 -2.76044,2.1224 -4.57031,2.73438 -1.7969,0.61198 -3.84767,0.91797 -6.15235,0.91797 l -7.51953,0 0,-28.55469 8.35938,0 c 2.09634,3e-5 3.98435,0.29951 5.66406,0.89844 1.69269,0.59898 3.138,1.49091 4.33594,2.67578 1.19789,1.1719 2.11586,2.63023 2.7539,4.375 0.65102,1.74481 0.97654,3.76304 0.97656,6.05469 m -6.13281,0.15625 c -2e-5,-1.58853 -0.16278,-2.95572 -0.48828,-4.10157 -0.31252,-1.15883 -0.77476,-2.11586 -1.38672,-2.87109 -0.59897,-0.75519 -1.34116,-1.31508 -2.22656,-1.67969 -0.87241,-0.36456 -1.87501,-0.54685 -3.00781,-0.54687 l -2.79297,0 0,18.59375 2.22656,0 c 2.55207,0 4.46613,-0.78125 5.74219,-2.34375 1.28904,-1.56249 1.93357,-3.91275 1.93359,-7.05078"
           id="path3837"
           style="fill:none;stroke:#000000;stroke-width:0.21611322;stroke-miterlimit:4;stroke-opacity:1;stroke-dasharray:none"
           inkscape:connector-curvature="0" />
        <path
           d="m 134.85156,222.05356 1.64063,0 c 1.67967,2e-5 2.8841,-0.33201 3.61328,-0.99609 0.72915,-0.67707 1.09373,-1.66665 1.09375,-2.96875 -2e-5,-1.35415 -0.39064,-2.31769 -1.17188,-2.89063 -0.78126,-0.57289 -1.9922,-0.85935 -3.63281,-0.85937 l -1.54297,0 0,7.71484 m 0,4.92188 0,10.95703 -6.05469,0 0,-28.55469 7.8125,0 c 3.65884,3e-5 6.36066,0.70966 8.10547,2.12891 1.74477,1.40627 2.61717,3.5482 2.61719,6.42578 -2e-5,0.97658 -0.13023,1.86199 -0.39062,2.65625 -0.26044,0.79428 -0.612,1.50392 -1.05469,2.1289 -0.42971,0.612 -0.93101,1.15236 -1.50391,1.6211 -0.55991,0.45574 -1.15236,0.83985 -1.77734,1.15234 1.44529,2.31772 2.74086,4.38803 3.88672,6.21094 0.49477,0.78125 0.97003,1.54297 1.42578,2.28515 0.46873,0.74219 0.88539,1.40626 1.25,1.99219 0.36456,0.58594 0.66404,1.05469 0.89844,1.40625 l 0.33203,0.54688 -6.71875,0 -6.19141,-10.95703 -2.63672,0"
           id="path3839"
           style="fill:none;stroke:#000000;stroke-width:0.21611322;stroke-miterlimit:4;stroke-opacity:1;stroke-dasharray:none"
           inkscape:connector-curvature="0" />
        <path
           d="m 178.36719,223.61606 c -3e-5,2.20053 -0.26045,4.20574 -0.78125,6.01563 -0.50784,1.8099 -1.28909,3.35938 -2.34375,4.64843 -1.05471,1.28907 -2.38935,2.28516 -4.00391,2.98828 -1.60158,0.70313 -3.49611,1.05469 -5.68359,1.05469 -2.18752,0 -4.08856,-0.35156 -5.70313,-1.05469 -1.60157,-0.70312 -2.92969,-1.69921 -3.98437,-2.98828 -1.04167,-1.28905 -1.82292,-2.83853 -2.34375,-4.64843 -0.50782,-1.82291 -0.76172,-3.84114 -0.76172,-6.05469 0,-2.21353 0.2539,-4.21873 0.76172,-6.01563 0.52083,-1.80987 1.30859,-3.35284 2.36328,-4.6289 1.05468,-1.27602 2.3828,-2.25909 3.98437,-2.94922 1.61458,-0.7031 3.52213,-1.05466 5.72266,-1.05469 2.18748,3e-5 4.08201,0.35159 5.68359,1.05469 1.60154,0.69013 2.92316,1.67971 3.96485,2.96875 1.05466,1.27606 1.83591,2.81903 2.34375,4.6289 0.5208,1.7969 0.78122,3.80861 0.78125,6.03516 m -19.375,0 c -1e-5,1.49741 0.1302,2.84506 0.39062,4.04297 0.26041,1.1849 0.65754,2.19402 1.19141,3.02734 0.54686,0.82032 1.23046,1.45183 2.05078,1.89453 0.8203,0.44272 1.79686,0.66407 2.92969,0.66407 1.15884,0 2.14842,-0.22135 2.96875,-0.66407 0.83331,-0.4427 1.51039,-1.07421 2.03125,-1.89453 0.53383,-0.83332 0.92446,-1.84244 1.17187,-3.02734 0.2604,-1.19791 0.39061,-2.54556 0.39063,-4.04297 -2e-5,-1.49738 -0.13023,-2.83852 -0.39063,-4.02344 -0.24741,-1.19789 -0.63804,-2.21352 -1.17187,-3.04687 -0.52086,-0.83331 -1.19143,-1.47133 -2.01172,-1.91406 -0.82033,-0.44269 -1.8034,-0.66404 -2.94922,-0.66407 -1.13283,3e-5 -2.1159,0.22138 -2.94922,0.66407 -0.83334,0.44273 -1.52345,1.08075 -2.07031,1.91406 -0.53387,0.83335 -0.931,1.84898 -1.19141,3.04687 -0.26042,1.18492 -0.39063,2.52606 -0.39062,4.02344"
           id="path3841"
           style="fill:none;stroke:#000000;stroke-width:0.21611322;stroke-miterlimit:4;stroke-opacity:1;stroke-dasharray:none"
           inkscape:connector-curvature="0" />
        <path
           d="m 190.32031,222.81528 1.19141,0 c 1.70572,1e-5 2.98827,-0.33853 3.84765,-1.01563 0.87239,-0.67706 1.30858,-1.77732 1.3086,-3.30078 -2e-5,-1.41925 -0.39064,-2.46742 -1.17188,-3.14453 -0.76824,-0.67706 -1.97918,-1.0156 -3.63281,-1.01562 l -1.54297,0 0,8.47656 m 12.48047,-4.53125 c -2e-5,1.25002 -0.18882,2.44793 -0.56641,3.59375 -0.37762,1.14585 -1.00262,2.15496 -1.875,3.02734 -0.85939,0.87241 -1.99871,1.56902 -3.41796,2.08985 -1.40627,0.52084 -3.15106,0.78126 -5.23438,0.78125 l -1.38672,0 0,10.15625 -6.05469,0 0,-28.55469 7.92969,0 c 1.83593,3e-5 3.41796,0.20836 4.7461,0.625 1.34112,0.40367 2.44138,0.98961 3.30078,1.75781 0.87237,0.75524 1.5169,1.68622 1.93359,2.79297 0.41665,1.09377 0.62498,2.33726 0.625,3.73047"
           id="path3843"
           style="fill:none;stroke:#000000;stroke-width:0.21611322;stroke-miterlimit:4;stroke-opacity:1;stroke-dasharray:none"
           inkscape:connector-curvature="0" />
      </g>
      <g
         transform="scale(1.0588514,0.94441958)"
         style="font-size:150.54260254px;font-style:normal;font-variant:normal;font-weight:bold;font-stretch:normal;line-height:125%;letter-spacing:0px;word-spacing:0px;fill:none;stroke:#000000;stroke-opacity:1;font-family:Droid Sans;-inkscape-font-specification:Droid Sans Bold"
         id="text3001">
        <path
           d="m 154.06516,498.10214 -48.88225,0 0,-12.93725 13.08427,-6.02759 0,-69.53774 -13.08427,-6.02759 0,-12.93725 48.88225,0 0,12.93725 -13.08427,6.02759 0,69.53774 13.08427,6.02759 0,12.93725"
           id="path3846"
           style="fill:none;stroke:#000000;stroke-opacity:1"
           inkscape:connector-curvature="0" />
        <path
           d="m 215.59063,498.10214 -23.59579,-84.31268 -0.66157,0 c 0.294,4.50852 0.53902,8.86994 0.73507,13.08427 0.098,1.81325 0.17149,3.67543 0.22052,5.58655 0.098,1.91124 0.17149,3.79793 0.22053,5.66004 0.098,1.86224 0.14698,3.65091 0.14701,5.36602 0.049,1.71522 0.0735,3.25887 0.0735,4.63095 l 0,49.98485 -20.36148,0 0,-107.46742 31.02001,0 23.22825,82.18097 0.44105,0 24.69839,-82.18097 31.02001,0 0,107.46742 -21.24356,0 0,-50.86693 c -1e-4,-1.27407 -1e-4,-2.71971 0,-4.33692 0.0489,-1.6171 0.0979,-3.33227 0.14702,-5.1455 0.0489,-1.81312 0.0979,-3.65079 0.14701,-5.51304 0.0979,-1.86211 0.17141,-3.67528 0.22052,-5.43952 0.19592,-4.11633 0.36743,-8.40424 0.51455,-12.86375 l -0.58806,0 -25.43346,84.16566 -20.94953,0"
           id="path3848"
           style="fill:none;stroke:#000000;stroke-opacity:1"
           inkscape:connector-curvature="0" />
        <path
           d="m 371.27872,498.10214 -7.35071,-25.58048 -37.04759,0 -7.42422,25.58048 -23.00774,0 34.91589,-107.90846 27.8592,0 35.0629,107.90846 -23.00773,0 m -12.64322,-44.69233 -6.90967,-23.52228 c -0.29409,-0.88202 -0.73513,-2.32766 -1.32313,-4.33693 -0.58811,-2.00912 -1.22517,-4.21433 -1.91119,-6.61564 -0.63711,-2.45015 -1.24967,-4.90039 -1.83768,-7.35071 -0.5881,-2.45015 -1.00464,-4.53285 -1.24962,-6.24811 -0.19607,1.0782 -0.46559,2.35232 -0.80858,3.82237 -0.29407,1.47023 -0.66161,3.03839 -1.1026,4.70446 -0.39209,1.61724 -0.80863,3.2589 -1.24962,4.92498 -0.44109,1.66624 -0.85763,3.23439 -1.24963,4.70446 -0.39208,1.47021 -0.75961,2.76884 -1.1026,3.89587 -0.29407,1.12718 -0.5146,1.96026 -0.66157,2.49925 l -6.83616,23.52228 26.24205,0"
           id="path3850"
           style="fill:none;stroke:#000000;stroke-opacity:1"
           inkscape:connector-curvature="0" />
        <path
           d="m 447.21159,437.75279 42.63414,0 0,55.7184 c -2.84237,0.9311 -5.70915,1.78868 -8.60034,2.57275 -2.89136,0.73508 -5.90515,1.37214 -9.04137,1.91119 -3.08738,0.49005 -6.34619,0.88208 -9.77645,1.17611 -3.3814,0.29403 -6.98324,0.44104 -10.80555,0.44104 -8.03683,0 -15.16701,-1.17611 -21.39057,-3.52834 -6.17463,-2.40123 -11.39364,-5.92956 -15.65702,-10.58502 -4.21443,-4.70444 -7.42424,-10.487 -9.62944,-17.34769 -2.20522,-6.90963 -3.30783,-14.87289 -3.30782,-23.88981 -1e-5,-8.42876 1.22511,-16.04899 3.67536,-22.86072 2.45022,-6.81158 6.05207,-12.59413 10.80555,-17.34768 4.80243,-4.80237 10.683,-8.47772 17.64171,-11.02607 7.00763,-2.59715 15.0199,-3.89577 24.03683,-3.89588 5.73349,1.1e-4 11.34452,0.61267 16.83313,1.83768 5.48845,1.22522 10.51143,2.81787 15.06896,4.77796 l -7.57123,18.22977 c -3.33241,-1.66608 -7.10577,-3.06271 -11.3201,-4.18991 -4.16548,-1.12702 -8.5514,-1.69057 -13.15777,-1.69066 -4.99855,9e-5 -9.50698,0.88217 -13.52532,2.64625 -3.96943,1.71526 -7.37526,4.16549 -10.21749,7.35072 -2.84231,3.18538 -5.02302,7.03225 -6.54213,11.54062 -1.51918,4.5085 -2.27876,9.53148 -2.27872,15.06896 -4e-5,5.29256 0.51451,10.14403 1.54365,14.55441 1.07807,4.36146 2.74423,8.13482 4.99848,11.3201 2.25418,3.18533 5.14546,5.66007 8.67384,7.42422 3.5773,1.76419 7.84071,2.64627 12.79024,2.64626 3.23425,1e-5 5.95401,-0.147 8.15929,-0.44105 2.25415,-0.29401 4.36136,-0.63704 6.32162,-1.0291 l 0,-22.41967 -20.36148,0 0,-18.96484"
           id="path3852"
           style="fill:none;stroke:#000000;stroke-opacity:1"
           inkscape:connector-curvature="0" />
        <path
           d="m 577.3927,498.10214 -61.893,0 0,-107.46742 61.893,0 0,18.67081 -39.10579,0 0,23.59579 36.38603,0 0,18.67081 -36.38603,0 0,27.71219 39.10579,0 0,18.81782"
           id="path3854"
           style="fill:none;stroke:#000000;stroke-opacity:1"
           inkscape:connector-curvature="0" />
      </g>
      <g
         transform="scale(1.0588514,0.94441958)"
         style="font-size:202.91348267px;font-style:normal;font-variant:normal;font-weight:bold;font-stretch:normal;line-height:125%;letter-spacing:0px;word-spacing:0px;fill:none;stroke:#000000;stroke-opacity:1;font-family:Droid Sans;-inkscape-font-specification:Droid Sans Bold"
         id="text3005">
        <path
           d="m 215.75492,652.63586 -30.61537,0 0,-62.51875 -49.24218,0 0,62.51875 -30.71445,0 0,-144.85327 30.71445,0 0,56.77218 49.24218,0 0,-56.77218 30.61537,0 0,144.85327"
           id="path3857"
           style="fill:none;stroke:#000000;stroke-opacity:1"
           inkscape:connector-curvature="0" />
        <path
           d="m 335.64032,652.63586 -83.42439,0 0,-144.85327 83.42439,0 0,25.16602 -52.70995,0 0,31.80432 49.04403,0 0,25.16602 -49.04403,0 0,37.35273 52.70995,0 0,25.36418"
           id="path3859"
           style="fill:none;stroke:#000000;stroke-opacity:1"
           inkscape:connector-curvature="0" />
        <path
           d="m 396.67288,572.08476 8.32262,0 c 8.52072,8e-5 14.63057,-1.68426 18.32959,-5.05302 3.69886,-3.43465 5.54833,-8.45464 5.54842,-15.05999 -9e-5,-6.86936 -1.98166,-11.75724 -5.94474,-14.66367 -3.96322,-2.90619 -10.1061,-4.35935 -18.42866,-4.35947 l -7.82723,0 0,39.13615 m 0,24.96787 0,55.58323 -30.71444,0 0,-144.85327 39.63154,0 c 18.56069,1.4e-4 32.26658,3.6 41.11772,10.79959 8.85093,7.13381 13.27645,17.99944 13.27656,32.59694 -1.1e-4,4.95404 -0.66063,9.44561 -1.98157,13.47473 -1.32116,4.02929 -3.10458,7.62915 -5.35026,10.79959 -2.17984,3.10455 -4.72286,5.84572 -7.62907,8.22355 -2.84036,2.3119 -5.84575,4.26045 -9.01618,5.84565 7.33174,11.75741 13.90397,22.25975 19.71669,31.50707 2.50989,3.96318 4.92081,7.82725 7.23276,11.59223 2.37777,3.76501 4.49145,7.13369 6.34105,10.10604 1.84934,2.97237 3.36855,5.35026 4.55762,7.13368 l 1.68434,2.7742 -34.08312,0 -31.408,-55.58323 -13.37564,0"
           id="path3861"
           style="fill:none;stroke:#000000;stroke-opacity:1"
           inkscape:connector-curvature="0" />
        <path
           d="m 577.39271,652.63586 -83.42439,0 0,-144.85327 83.42439,0 0,25.16602 -52.70994,0 0,31.80432 49.04403,0 0,25.16602 -49.04403,0 0,37.35273 52.70994,0 0,25.36418"
           id="path3863"
           style="fill:none;stroke:#000000;stroke-opacity:1"
           inkscape:connector-curvature="0" />
      </g>
    </g>
    <g
       id="g3048"
       style="stroke-width:1;stroke-miterlimit:4;stroke-dasharray:none"
       transform="matrix(1.3,0,0,1.3,1138.9999,-879.72835)"
       inkscape:export-filename="/home/phil/PROJECTS/PopArt/img/drop-filled.png"
       inkscape:export-xdpi="90"
       inkscape:export-ydpi="90">
      <g
         transform="matrix(4.8995215,0,0,4.3700222,-1337.9125,-213.10699)"
         style="font-size:40px;font-style:normal;font-variant:normal;font-weight:bold;font-stretch:normal;line-height:125%;letter-spacing:0px;word-spacing:0px;fill:#000000;fill-opacity:1;stroke:none;font-family:Droid Sans;-inkscape-font-specification:Droid Sans Bold"
         id="flowRoot2985-6">
        <path
           d="m 122.83984,223.38169 c -2e-5,2.40886 -0.33205,4.52474 -0.99609,6.34765 -0.65107,1.8099 -1.60159,3.32683 -2.85156,4.55078 -1.237,1.21094 -2.76044,2.1224 -4.57031,2.73438 -1.7969,0.61198 -3.84767,0.91797 -6.15235,0.91797 l -7.51953,0 0,-28.55469 8.35938,0 c 2.09634,3e-5 3.98435,0.29951 5.66406,0.89844 1.69269,0.59898 3.138,1.49091 4.33594,2.67578 1.19789,1.1719 2.11586,2.63023 2.7539,4.375 0.65102,1.74481 0.97654,3.76304 0.97656,6.05469 m -6.13281,0.15625 c -2e-5,-1.58853 -0.16278,-2.95572 -0.48828,-4.10157 -0.31252,-1.15883 -0.77476,-2.11586 -1.38672,-2.87109 -0.59897,-0.75519 -1.34116,-1.31508 -2.22656,-1.67969 -0.87241,-0.36456 -1.87501,-0.54685 -3.00781,-0.54687 l -2.79297,0 0,18.59375 2.22656,0 c 2.55207,0 4.46613,-0.78125 5.74219,-2.34375 1.28904,-1.56249 1.93357,-3.91275 1.93359,-7.05078"
           id="path3874"
           inkscape:connector-curvature="0" />
        <path
           d="m 134.85156,222.05356 1.64063,0 c 1.67967,2e-5 2.8841,-0.33201 3.61328,-0.99609 0.72915,-0.67707 1.09373,-1.66665 1.09375,-2.96875 -2e-5,-1.35415 -0.39064,-2.31769 -1.17188,-2.89063 -0.78126,-0.57289 -1.9922,-0.85935 -3.63281,-0.85937 l -1.54297,0 0,7.71484 m 0,4.92188 0,10.95703 -6.05469,0 0,-28.55469 7.8125,0 c 3.65884,3e-5 6.36066,0.70966 8.10547,2.12891 1.74477,1.40627 2.61717,3.5482 2.61719,6.42578 -2e-5,0.97658 -0.13023,1.86199 -0.39062,2.65625 -0.26044,0.79428 -0.612,1.50392 -1.05469,2.1289 -0.42971,0.612 -0.93101,1.15236 -1.50391,1.6211 -0.55991,0.45574 -1.15236,0.83985 -1.77734,1.15234 1.44529,2.31772 2.74086,4.38803 3.88672,6.21094 0.49477,0.78125 0.97003,1.54297 1.42578,2.28515 0.46873,0.74219 0.88539,1.40626 1.25,1.99219 0.36456,0.58594 0.66404,1.05469 0.89844,1.40625 l 0.33203,0.54688 -6.71875,0 -6.19141,-10.95703 -2.63672,0"
           id="path3876"
           inkscape:connector-curvature="0" />
        <path
           d="m 178.36719,223.61606 c -3e-5,2.20053 -0.26045,4.20574 -0.78125,6.01563 -0.50784,1.8099 -1.28909,3.35938 -2.34375,4.64843 -1.05471,1.28907 -2.38935,2.28516 -4.00391,2.98828 -1.60158,0.70313 -3.49611,1.05469 -5.68359,1.05469 -2.18752,0 -4.08856,-0.35156 -5.70313,-1.05469 -1.60157,-0.70312 -2.92969,-1.69921 -3.98437,-2.98828 -1.04167,-1.28905 -1.82292,-2.83853 -2.34375,-4.64843 -0.50782,-1.82291 -0.76172,-3.84114 -0.76172,-6.05469 0,-2.21353 0.2539,-4.21873 0.76172,-6.01563 0.52083,-1.80987 1.30859,-3.35284 2.36328,-4.6289 1.05468,-1.27602 2.3828,-2.25909 3.98437,-2.94922 1.61458,-0.7031 3.52213,-1.05466 5.72266,-1.05469 2.18748,3e-5 4.08201,0.35159 5.68359,1.05469 1.60154,0.69013 2.92316,1.67971 3.96485,2.96875 1.05466,1.27606 1.83591,2.81903 2.34375,4.6289 0.5208,1.7969 0.78122,3.80861 0.78125,6.03516 m -19.375,0 c -1e-5,1.49741 0.1302,2.84506 0.39062,4.04297 0.26041,1.1849 0.65754,2.19402 1.19141,3.02734 0.54686,0.82032 1.23046,1.45183 2.05078,1.89453 0.8203,0.44272 1.79686,0.66407 2.92969,0.66407 1.15884,0 2.14842,-0.22135 2.96875,-0.66407 0.83331,-0.4427 1.51039,-1.07421 2.03125,-1.89453 0.53383,-0.83332 0.92446,-1.84244 1.17187,-3.02734 0.2604,-1.19791 0.39061,-2.54556 0.39063,-4.04297 -2e-5,-1.49738 -0.13023,-2.83852 -0.39063,-4.02344 -0.24741,-1.19789 -0.63804,-2.21352 -1.17187,-3.04687 -0.52086,-0.83331 -1.19143,-1.47133 -2.01172,-1.91406 -0.82033,-0.44269 -1.8034,-0.66404 -2.94922,-0.66407 -1.13283,3e-5 -2.1159,0.22138 -2.94922,0.66407 -0.83334,0.44273 -1.52345,1.08075 -2.07031,1.91406 -0.53387,0.83335 -0.931,1.84898 -1.19141,3.04687 -0.26042,1.18492 -0.39063,2.52606 -0.39062,4.02344"
           id="path3878"
           inkscape:connector-curvature="0" />
        <path
           d="m 190.32031,222.81528 1.19141,0 c 1.70572,1e-5 2.98827,-0.33853 3.84765,-1.01563 0.87239,-0.67706 1.30858,-1.77732 1.3086,-3.30078 -2e-5,-1.41925 -0.39064,-2.46742 -1.17188,-3.14453 -0.76824,-0.67706 -1.97918,-1.0156 -3.63281,-1.01562 l -1.54297,0 0,8.47656 m 12.48047,-4.53125 c -2e-5,1.25002 -0.18882,2.44793 -0.56641,3.59375 -0.37762,1.14585 -1.00262,2.15496 -1.875,3.02734 -0.85939,0.87241 -1.99871,1.56902 -3.41796,2.08985 -1.40627,0.52084 -3.15106,0.78126 -5.23438,0.78125 l -1.38672,0 0,10.15625 -6.05469,0 0,-28.55469 7.92969,0 c 1.83593,3e-5 3.41796,0.20836 4.7461,0.625 1.34112,0.40367 2.44138,0.98961 3.30078,1.75781 0.87237,0.75524 1.5169,1.68622 1.93359,2.79297 0.41665,1.09377 0.62498,2.33726 0.625,3.73047"
           id="path3880"
           inkscape:connector-curvature="0" />
      </g>
      <g
         transform="scale(1.0588514,0.94441958)"
         style="font-size:150.54260254px;font-style:normal;font-variant:normal;font-weight:bold;font-stretch:normal;line-height:125%;letter-spacing:0px;word-spacing:0px;fill:#000000;fill-opacity:1;stroke:none;font-family:Droid Sans;-inkscape-font-specification:Droid Sans Bold"
         id="text3001-6">
        <path
           d="m -748.47771,994.11768 -48.88225,0 0,-12.93726 13.08427,-6.02758 0,-69.53775 -13.08427,-6.02758 0,-12.93726 48.88225,0 0,12.93726 -13.08427,6.02758 0,69.53775 13.08427,6.02758 0,12.93726"
           id="path3883"
           inkscape:connector-curvature="0" />
        <path
           d="m -686.95224,994.11768 -23.59579,-84.31268 -0.66157,0 c 0.294,4.50851 0.53902,8.86993 0.73507,13.08427 0.098,1.81324 0.17149,3.67542 0.22053,5.58654 0.098,1.91125 0.17148,3.79793 0.22052,5.66005 0.098,1.86224 0.14698,3.65091 0.14701,5.36602 0.049,1.71522 0.0735,3.25887 0.0735,4.63095 l 0,49.98485 -20.36148,0 0,-107.46743 31.02001,0 23.22826,82.18097 0.44104,0 24.69839,-82.18097 31.02001,0 0,107.46743 -21.24356,0 0,-50.86694 c -10e-5,-1.27407 -10e-5,-2.71971 0,-4.33692 0.0489,-1.6171 0.0979,-3.33226 0.14702,-5.1455 0.0489,-1.81311 0.0979,-3.65079 0.14701,-5.51303 0.0979,-1.86212 0.17141,-3.67529 0.22052,-5.43953 0.19592,-4.11632 0.36743,-8.40424 0.51455,-12.86375 l -0.58806,0 -25.43346,84.16567 -20.94953,0"
           id="path3885"
           inkscape:connector-curvature="0" />
        <path
           d="m -531.26415,994.11768 -7.35071,-25.58049 -37.04759,0 -7.42422,25.58049 -23.00774,0 34.91589,-107.90847 27.8592,0 35.0629,107.90847 -23.00773,0 m -12.64322,-44.69234 -6.90967,-23.52228 c -0.29409,-0.88202 -0.73513,-2.32766 -1.32313,-4.33692 -0.58811,-2.00912 -1.22517,-4.21433 -1.91119,-6.61564 -0.63711,-2.45016 -1.24967,-4.90039 -1.83768,-7.35072 -0.5881,-2.45015 -1.00464,-4.53285 -1.24962,-6.2481 -0.19607,1.07819 -0.46559,2.35232 -0.80858,3.82237 -0.29407,1.47023 -0.66161,3.03838 -1.1026,4.70445 -0.39209,1.61724 -0.80863,3.2589 -1.24962,4.92498 -0.44109,1.66624 -0.85763,3.23439 -1.24963,4.70446 -0.39208,1.47021 -0.75961,2.76884 -1.1026,3.89588 -0.29407,1.12718 -0.5146,1.96026 -0.66157,2.49924 l -6.83616,23.52228 26.24205,0"
           id="path3887"
           inkscape:connector-curvature="0" />
        <path
           d="m -455.33128,933.76832 42.63414,0 0,55.71841 c -2.84237,0.93109 -5.70915,1.78867 -8.60034,2.57275 -2.89136,0.73507 -5.90515,1.37213 -9.04137,1.91118 -3.08738,0.49005 -6.34619,0.88209 -9.77645,1.17612 -3.38139,0.29402 -6.98324,0.44104 -10.80555,0.44104 -8.03683,0 -15.16701,-1.17612 -21.39057,-3.52834 -6.17463,-2.40123 -11.39363,-5.92957 -15.65702,-10.58503 -4.21443,-4.70444 -7.42424,-10.48699 -9.62944,-17.34768 -2.20522,-6.90964 -3.30783,-14.8729 -3.30782,-23.88982 -10e-6,-8.42876 1.22511,-16.04899 3.67536,-22.86072 2.45022,-6.81158 6.05207,-12.59413 10.80555,-17.34768 4.80244,-4.80237 10.683,-8.47772 17.64171,-11.02607 7.00763,-2.59714 15.0199,-3.89577 24.03683,-3.89588 5.73349,1.1e-4 11.34452,0.61267 16.83313,1.83768 5.48845,1.22522 10.51143,2.81788 15.06896,4.77796 l -7.57123,18.22977 c -3.33241,-1.66607 -7.10577,-3.06271 -11.3201,-4.1899 -4.16548,-1.12702 -8.5514,-1.69058 -13.15777,-1.69067 -4.99855,9e-5 -9.50698,0.88218 -13.52532,2.64626 -3.96943,1.71525 -7.37526,4.16549 -10.21749,7.35071 -2.84231,3.18539 -5.02302,7.03226 -6.54213,11.54062 -1.51918,4.5085 -2.27875,9.53148 -2.27872,15.06896 -3e-5,5.29256 0.51451,10.14403 1.54365,14.55441 1.07807,4.36146 2.74423,8.13482 4.99848,11.3201 2.25418,3.18534 5.14546,5.66007 8.67384,7.42422 3.5773,1.76419 7.84071,2.64628 12.79024,2.64626 3.23425,2e-5 5.95402,-0.147 8.1593,-0.44104 2.25414,-0.29401 4.36135,-0.63705 6.32161,-1.0291 l 0,-22.41968 -20.36148,0 0,-18.96484"
           id="path3889"
           inkscape:connector-curvature="0" />
        <path
           d="m -325.15017,994.11768 -61.893,0 0,-107.46743 61.893,0 0,18.67081 -39.10579,0 0,23.59579 36.38603,0 0,18.67081 -36.38603,0 0,27.71219 39.10579,0 0,18.81783"
           id="path3891"
           inkscape:connector-curvature="0" />
      </g>
      <g
         transform="scale(1.0588514,0.94441958)"
         style="font-size:202.91348267px;font-style:normal;font-variant:normal;font-weight:bold;font-stretch:normal;line-height:125%;letter-spacing:0px;word-spacing:0px;fill:#000000;fill-opacity:1;stroke:none;font-family:Droid Sans;-inkscape-font-specification:Droid Sans Bold"
         id="text3005-7">
        <path
           d="m -686.78795,1148.6515 -30.61536,0 0,-62.5188 -49.24219,0 0,62.5188 -30.71445,0 0,-144.8533 30.71445,0 0,56.7722 49.24219,0 0,-56.7722 30.61536,0 0,144.8533"
           id="path3894"
           inkscape:connector-curvature="0" />
        <path
           d="m -566.90255,1148.6515 -83.42439,0 0,-144.8533 83.42439,0 0,25.166 -52.70995,0 0,31.8044 49.04403,0 0,25.166 -49.04403,0 0,37.3527 52.70995,0 0,25.3642"
           id="path3896"
           inkscape:connector-curvature="0" />
        <path
           d="m -505.86999,1068.1004 8.32262,0 c 8.52072,10e-5 14.63057,-1.6843 18.32959,-5.053 3.69886,-3.4347 5.54833,-8.4547 5.54842,-15.06 -9e-5,-6.8694 -1.98166,-11.7573 -5.94474,-14.6637 -3.96322,-2.9062 -10.1061,-4.3593 -18.42866,-4.3595 l -7.82723,0 0,39.1362 m 0,24.9679 0,55.5832 -30.71444,0 0,-144.8533 39.63154,0 c 18.56069,2e-4 32.26658,3.6 41.11772,10.7996 8.85093,7.1338 13.27645,17.9994 13.27656,32.5969 -1.1e-4,4.9541 -0.66063,9.4457 -1.98157,13.4748 -1.32116,4.0293 -3.10458,7.6291 -5.35026,10.7996 -2.17984,3.1045 -4.72286,5.8457 -7.62907,8.2235 -2.84036,2.3119 -5.84575,4.2605 -9.01618,5.8457 7.33174,11.7574 13.90397,22.2597 19.71669,31.507 2.50989,3.9632 4.92081,7.8273 7.23276,11.5923 2.37777,3.765 4.49145,7.1337 6.34105,10.106 1.84934,2.9724 3.36855,5.3503 4.55762,7.1337 l 1.68434,2.7742 -34.08312,0 -31.408,-55.5832 -13.37564,0"
           id="path3898"
           inkscape:connector-curvature="0" />
        <path
           d="m -325.15015,1148.6515 -83.4244,0 0,-144.8533 83.4244,0 0,25.166 -52.70995,0 0,31.8044 49.04403,0 0,25.166 -49.04403,0 0,37.3527 52.70995,0 0,25.3642"
           id="path3900"
           inkscape:connector-curvature="0" />
      </g>
    </g>
  </g>
</svg>
